<?xml version="1.0" standalone="no"?>
<!DOCTYPE svg PUBLIC "-//W3C//DTD SVG 20010904//EN"
 "http://www.w3.org/TR/2001/REC-SVG-20010904/DTD/svg10.dtd">
<svg version="1.0" xmlns="http://www.w3.org/2000/svg"
 width="300.000000pt" height="450.000000pt" viewBox="0 0 300.000000 450.000000"
 preserveAspectRatio="xMidYMid meet">
<metadata>
Created by potrace 1.10, written by Peter Selinger 2001-2011
</metadata>
<g transform="translate(0.000000,450.000000) scale(0.100000,-0.100000)"
fill="#000000" stroke="none">
<path d="M1336 3014 c-37 -69 -66 -127 -64 -130 3 -2 109 -3 236 -2 l231 3
-70 128 -71 127 -97 0 -96 0 -69 -126z m318 0 c36 -63 66 -117 66 -120 0 -2
-99 -4 -219 -4 l-219 0 66 120 66 120 87 0 87 0 66 -116z"/>
<path d="M1167 2715 c-26 -47 -47 -90 -47 -95 0 -6 144 -10 380 -10 282 0 380
3 380 12 0 6 -21 49 -47 95 l-47 83 -286 0 -286 0 -47 -85z m640 25 c14 -25
33 -60 44 -77 l18 -33 -364 0 c-201 0 -365 3 -365 6 0 4 18 40 41 80 l41 74
280 -2 280 -3 25 -45z"/>
<path d="M1016 2445 c-27 -47 -46 -88 -43 -91 7 -7 1049 -5 1056 2 5 5 -25 64
-71 142 l-20 32 -437 0 -437 0 -48 -85z m960 -5 l42 -75 -259 -3 c-142 -1
-375 -1 -517 0 l-258 3 44 78 43 77 432 -2 431 -3 42 -75z"/>
<path d="M896 2232 c-25 -40 -76 -138 -76 -147 0 -3 123 -5 274 -5 l274 0 45
78 c25 42 49 85 52 95 7 16 -10 17 -269 17 l-276 0 -24 -38z m554 14 c0 -2
-19 -37 -43 -78 l-44 -73 -267 -3 -267 -2 27 47 c15 27 36 63 46 81 l20 32
264 0 c145 0 264 -2 264 -4z"/>
<path d="M1538 2264 c-3 -3 16 -44 42 -92 l48 -87 276 -3 c182 -1 276 1 276 8
0 5 -21 48 -47 95 l-48 85 -271 0 c-149 0 -273 -3 -276 -6z m587 -87 c22 -39
42 -75 43 -79 2 -5 -116 -8 -262 -8 l-265 0 -27 48 c-15 26 -36 62 -46 80
l-20 32 269 0 268 0 40 -73z"/>
<path d="M760 1992 c0 -4 -20 -43 -45 -86 -24 -43 -42 -83 -39 -87 3 -5 123
-9 268 -9 302 0 268 -11 335 113 l42 77 -280 0 c-155 0 -281 -3 -281 -8z m540
-7 c0 -5 -32 -61 -58 -100 -7 -11 -15 -28 -18 -37 -6 -17 -28 -18 -270 -18
-145 0 -264 2 -264 5 0 2 12 26 28 52 15 26 34 60 41 76 l14 27 264 0 c145 0
263 -2 263 -5z"/>
<path d="M1690 1994 c0 -18 92 -173 106 -178 24 -9 507 -7 522 3 11 6 9 16 -8
46 -12 22 -33 60 -47 87 l-25 48 -274 0 c-151 0 -274 -3 -274 -6z m579 -78
c23 -40 41 -76 41 -80 0 -3 -117 -6 -259 -6 l-259 0 -25 43 c-14 23 -34 59
-46 80 l-21 37 264 0 265 0 40 -74z"/>
<path d="M613 1723 c-4 -10 -24 -47 -45 -82 -21 -36 -38 -71 -38 -78 0 -10 57
-13 263 -13 144 0 267 4 272 8 10 7 105 167 105 177 0 3 -124 5 -275 5 -251 0
-276 -2 -282 -17z m537 2 c0 -3 -19 -39 -42 -80 l-43 -75 -105 0 c-58 0 -176
-3 -264 -7 l-158 -6 22 44 c13 24 34 63 47 87 l25 42 259 0 c142 0 259 -2 259
-5z"/>
<path d="M1840 1729 c0 -6 21 -49 46 -95 l46 -84 268 0 c148 0 271 3 273 8 3
4 -17 45 -43 92 l-47 85 -272 3 c-194 2 -271 -1 -271 -9z m576 -79 c23 -41 41
-76 40 -77 -1 -2 -118 -4 -260 -6 l-257 -3 -37 66 c-65 112 -89 101 210 98
l262 -3 42 -75z"/>
<path d="M447 1428 c-35 -62 -67 -126 -67 -136 0 -10 525 -6 540 3 7 4 86 139
98 167 2 5 -120 8 -271 8 l-275 0 -25 -42z m551 25 c-1 -5 -21 -41 -43 -80
l-40 -73 -262 0 -263 0 36 63 c19 34 38 70 41 80 5 16 27 17 270 17 146 0 263
-3 261 -7z"/>
<path d="M1772 1378 l3 -93 355 2 c494 2 490 2 490 12 0 5 -21 45 -46 90 l-45
81 -380 0 -380 0 3 -92z m795 2 l43 -80 -415 0 -415 0 0 80 0 80 373 0 372 0
42 -80z"/>
</g>
</svg>
